<?xml version="1.0" encoding="UTF-8"?>
<svg id="e82c897f-43fe-4287-8ae1-200fadcfb6cc" data-name="Layer 1" version="1.1" viewBox="0 0 819 750" xmlns="http://www.w3.org/2000/svg" xmlns:xlink="http://www.w3.org/1999/xlink">
    <defs>
        <linearGradient id="45454b23-aa8c-4829-a9e1-376846a8e39a" x1="391" x2="391" y1="182" y2="30.7" gradientUnits="userSpaceOnUse">
            <stop stop-color="gray" stop-opacity=".25" offset="0"/>
            <stop stop-color="gray" stop-opacity=".12" offset=".54"/>
            <stop stop-color="gray" stop-opacity=".1" offset="1"/>
        </linearGradient>
        <linearGradient id="87ffef23-919c-4dfe-8b10-07a74861776a" x1="711" x2="711" y1="187" y2="36" xlink:href="#45454b23-aa8c-4829-a9e1-376846a8e39a"/>
        <linearGradient id="359b3954-dccd-444a-b393-9367aa3a3df2" x1="551" x2="551" y1="311" y2="160" xlink:href="#45454b23-aa8c-4829-a9e1-376846a8e39a"/>
        <linearGradient id="582a1088-938c-4a0f-8b56-a0129ae06be8" x1="66.7" x2="66.7" y1="439" y2="306" xlink:href="#45454b23-aa8c-4829-a9e1-376846a8e39a"/>
        <linearGradient id="94cd4822-8206-4eba-9126-3d531279d2b1" x1="77.3" x2="77.3" y1="433" y2="299" xlink:href="#45454b23-aa8c-4829-a9e1-376846a8e39a"/>
        <linearGradient id="2edad69d-5f72-4c45-895e-01008dba3de0" x1="509" x2="509" y1="292" y2="202" xlink:href="#45454b23-aa8c-4829-a9e1-376846a8e39a"/>
        <linearGradient id="e8ff2c8b-c79c-4dec-93d5-fd779b0ba085" x1="372" x2="372" y1="825" y2="148" xlink:href="#45454b23-aa8c-4829-a9e1-376846a8e39a"/>
    </defs>
    <title>connecting teams3</title>
    <g opacity=".5">
        <circle cx="391" cy="106" r="75.5" fill="url(#45454b23-aa8c-4829-a9e1-376846a8e39a)"/>
    </g>
    <circle cx="391" cy="106" r="73.9" fill="#f5f5f5"/>
    <path transform="translate(-191 -75)" d="m622 188c0 24.6-17.7 36.7-40.6 36.7s-42.5-12.1-42.5-36.7 18.6-44.5 41.5-44.5 41.5 19.9 41.5 44.5z" fill="#333"/>
    <path transform="translate(-191 -75)" d="m582 255a73.6 73.6 0 0 0 40.6-12.2c-2.73-14.9-13.1-15.8-13.1-15.8h-57.2s-9.78 0.8-12.8 14.5a73.6 73.6 0 0 0 42.5 13.4z" fill="#20a39e"/>
    <path d="m379 134h22.9v18.9a10.8 10.8 0 0 1-10.9 10.8h-1.28a10.8 10.8 0 0 1-10.7-10.8v-18.9z" opacity=".1"/>
    <path d="m381 133h18.8a2.06 2.06 0 0 1 2.06 2.06v16.9a10.8 10.8 0 0 1-10.8 10.8h-1.28a10.8 10.8 0 0 1-10.7-10.8v-16.9a2.06 2.06 0 0 1 2-2.09z" fill="#fda57d"/>
    <path transform="translate(-191 -75)" d="m570 218a32.9 32.9 0 0 0 22.9 0.06v-2.81h-22.9z" opacity=".1"/>
    <circle cx="390" cy="111" r="32.8" fill="#fda57d"/>
    <path transform="translate(-191 -75)" d="m543 188s20.4-2.47 35.9-22.3c0 0 20.4 22.5 34.6 20 0 0 8.25-8.66 0-17.3s-14.6-19.6-25.6-18.1-24.3 2.06-30.1 7.22-14.8 30.5-14.8 30.5z" opacity=".1"/>
    <path transform="translate(-191 -75)" d="m543 188s20.4-2.47 35.9-22.3c0 0 20.4 22.5 34.6 20 0 0 8.25-8.66 0-17.3s-14.6-19.6-25.6-18.1-24.3 2.06-30.1 7.22-14.8 30.5-14.8 30.5z" fill="#333"/>
    <ellipse cx="358" cy="111" rx="3.05" ry="5.72" fill="#fda57d"/>
    <ellipse cx="423" cy="111" rx="3.05" ry="5.72" fill="#fda57d"/>
    <g opacity=".5">
        <circle cx="711" cy="112" r="75.5" fill="url(#87ffef23-919c-4dfe-8b10-07a74861776a)"/>
    </g>
    <circle cx="711" cy="111" r="73.9" fill="#f5f5f5"/>
    <path transform="translate(-191 -75)" d="m902 260a73.6 73.6 0 0 0 40.6-12.2c-2.72-14.9-13.1-15.7-13.1-15.7h-57.2s-9.78 0.8-12.8 14.5a73.6 73.6 0 0 0 42.5 13.4z" fill="#20a39e"/>
    <circle cx="710" cy="110" r="35.7" fill="#72351c"/>
    <path d="m699 139h22.9v18.9a10.8 10.8 0 0 1-10.8 10.8h-1.28a10.8 10.8 0 0 1-10.8-10.8v-18.9a0 0 0 0 1 0.01 0z" opacity=".1"/>
    <path d="m701 138h18.8a2.06 2.06 0 0 1 2.06 2.06v16.9a10.8 10.8 0 0 1-10.8 10.8h-1.28a10.8 10.8 0 0 1-10.8-10.8v-16.9a2.06 2.06 0 0 1 2.06-2.06z" fill="#fda57d"/>
    <path transform="translate(-191 -75)" d="m889 223a32.9 32.9 0 0 0 22.9 0.06v-2.81h-22.9z" opacity=".1"/>
    <circle cx="710" cy="117" r="32.8" fill="#fda57d"/>
    <path transform="translate(-191 -75)" d="m878 162s13.8 28 52.8 11.8l-9.07-14.2-16.1-5.77z" opacity=".1"/>
    <g fill="#72351c">
        <path transform="translate(-191 -75)" d="m878 161s13.8 28 52.8 11.8l-9.07-14.2-16.1-5.77z"/>
        <path transform="translate(-191 -75)" d="m877 160a18.9 18.9 0 0 1 4.69-7.63c6.45-6.37 17-7.72 22.4-15a4.24 4.24 0 0 1-1.94 6c5.19 0 11.2-0.49 14.2-4.76a9.71 9.71 0 0 1-1.64 10.3c4.6 0.21 9.52 3.33 9.81 7.93 0.2 3.06-1.72 6-4.24 7.72a23.6 23.6 0 0 1-8.56 3.22c-8.76 1.93-40.4 10-34.7-7.74z"/>
        <path transform="translate(-191 -75)" d="m934 192h-0.87l-16.9 15c-16.3-7.63-28.2 0-28.2 0l-17.7-14.4-1.79 0.22a32.8 32.8 0 0 0 65.5-0.84zm-32.8 20.8c-6.38 0-11.5-1.29-11.5-2.89s5.17-2.89 11.5-2.89 11.5 1.29 11.5 2.89-5.17 2.89-11.5 2.89z"/>
    </g>
    <ellipse cx="678" cy="117" rx="3.05" ry="5.72" fill="#fda57d"/>
    <ellipse cx="743" cy="117" rx="3.05" ry="5.72" fill="#fda57d"/>
    <g opacity=".5">
        <circle cx="551" cy="235" r="75.5" fill="url(#359b3954-dccd-444a-b393-9367aa3a3df2)"/>
    </g>
    <circle cx="551" cy="235" r="73.9" fill="#f5f5f5"/>
    <path transform="translate(-191 -75)" d="m713 311s-8.38 41.3-13 39c0 0 44.1 38.1 83.1 0 0 0-6.86-29.1-16.8-39z" fill="#333"/>
    <path transform="translate(-191 -75)" d="m742 384a73.6 73.6 0 0 0 40.6-12.2c-2.72-14.9-13.1-15.7-13.1-15.7h-57.2s-9.78 0.8-12.8 14.5a73.6 73.6 0 0 0 42.4 13.4z" fill="#20a39e"/>
    <circle cx="550" cy="233" r="32.8" fill="#333"/>
    <path d="m539 263h22.9v18.9a10.8 10.8 0 0 1-10.8 10.8h-1.3a10.8 10.8 0 0 1-10.8-10.8v-18.9a0 0 0 0 1 0.01 0z" opacity=".1"/>
    <path d="m541 262h18.8a2.06 2.06 0 0 1 2.06 2.06v16.9a10.8 10.8 0 0 1-10.8 10.8h-1.3a10.8 10.8 0 0 1-10.8-10.8v-16.8a2.06 2.06 0 0 1 2.06-2.06z" fill="#be7c5e"/>
    <path transform="translate(-191 -75)" d="m729 347a32.9 32.9 0 0 0 22.9 0.06v-2.81h-22.9z" opacity=".1"/>
    <circle cx="550" cy="241" r="32.8" fill="#be7c5e"/>
    <path transform="translate(-191 -75)" d="m710 303h62.5s-5.34-25.2-29-23.6-33.5 23.6-33.5 23.6z" fill="#333"/>
    <ellipse cx="518" cy="239" rx="3.05" ry="5.72" fill="#be7c5e"/>
    <ellipse cx="582" cy="239" rx="3.05" ry="5.72" fill="#be7c5e"/>
    <path transform="translate(-191 -75)" d="m710 304h62.5s-5.34-25.2-29-23.6-33.5 23.6-33.5 23.6z" opacity=".1"/>
    <g fill="#ccc">
        <path transform="translate(-191 -75)" d="m742 242a68.8 68.8 0 1 1-68.8 68.8 68.8 68.8 0 0 1 68.8-68.8m0-17a85.8 85.8 0 1 0 85.8 85.8 85.9 85.9 0 0 0-85.8-85.8z"/>
        <rect x="538" y="130" width="20.1" height="21.2"/>
        <rect transform="translate(-3.32 711) rotate(-59)" x="777" y="217" width="21.2" height="20.1"/>
        <rect transform="translate(-214 357) rotate(-29)" x="813" y="252" width="21.2" height="20.1"/>
        <rect transform="translate(-107 792) rotate(-58)" x="814" y="348" width="20.1" height="21.2"/>
        <rect transform="translate(-79.6 637) rotate(-61)" x="650" y="251" width="20.1" height="21.2"/>
        <rect transform="translate(-280 329) rotate(-32)" x="649" y="348" width="21.2" height="20.1"/>
        <rect transform="translate(-208 315) rotate(-31)" x="685" y="217" width="20.1" height="21.2"/>
        <rect x="538" y="320" width="20.1" height="21.2"/>
        <rect transform="translate(-281 387) rotate(-31)" x="778" y="383" width="20.1" height="21.2"/>
        <rect transform="matrix(.52 -.86 .86 .52 -191 712)" x="684" y="383" width="21.2" height="20.1"/>
        <rect x="443" y="227" width="24.4" height="18"/>
        <rect transform="translate(1484 547) rotate(180)" x="825" y="302" width="24.4" height="18"/>
        <path transform="translate(-191 -75)" d="m901 118a68.8 68.8 0 1 1-68.8 68.8 68.8 68.8 0 0 1 68.8-68.8m0-17a85.8 85.8 0 1 0 85.8 85.8 85.9 85.9 0 0 0-85.8-85.8z"/>
        <rect x="698" y="5.67" width="20.1" height="21.2"/>
        <rect transform="translate(180 788) rotate(-59)" x="937" y="93.4" width="21.2" height="20.1"/>
        <rect transform="translate(-134 419) rotate(-29)" x="973" y="128" width="21.2" height="20.1"/>
        <rect transform="translate(73 869) rotate(-58)" x="974" y="224" width="20.1" height="21.2"/>
        <rect transform="translate(111 713) rotate(-61)" x="810" y="127" width="20.1" height="21.2"/>
        <rect transform="translate(-190 395) rotate(-32)" x="809" y="224" width="21.2" height="20.1"/>
        <rect transform="translate(-122 380) rotate(-31)" x="845" y="92.9" width="20.1" height="21.2"/>
        <rect x="698" y="196" width="20.1" height="21.2"/>
        <rect transform="translate(-194 452) rotate(-31)" x="938" y="259" width="20.1" height="21.2"/>
        <rect transform="matrix(.52 -.86 .86 .52 -7.03 789)" x="844" y="260" width="21.2" height="20.1"/>
        <rect x="603" y="103" width="24.4" height="18"/>
        <rect transform="translate(1804 299) rotate(180)" x="985" y="178" width="24.4" height="18"/>
        <path transform="translate(-191 -75)" d="m582 112q1.21 0 2.43 0a68.8 68.8 0 0 1-2.35 138q-1.21 0-2.43 0a68.8 68.8 0 0 1 2.35-138m0-17a85.8 85.8 0 0 0-2.93 172c1 0 2 0.05 3 0.05a85.8 85.8 0 0 0 2.95-172c-1 0-2-0.05-3-0.05z"/>
        <rect transform="translate(286 590) rotate(-88)" x="572" y="75.9" width="21.2" height="20.1"/>
        <rect transform="translate(13.1 500) rotate(-57)" x="620" y="89.8" width="21.2" height="20.1"/>
        <rect transform="translate(-180 242) rotate(-27)" x="654" y="125" width="21.2" height="20.1"/>
        <rect transform="translate(-90.9 576) rotate(-56)" x="652" y="221" width="20.1" height="21.2"/>
        <rect transform="translate(-58.4 418) rotate(-59)" x="492" y="119" width="20.1" height="21.2"/>
        <rect transform="matrix(.87 -.5 .5 .87 -237 204)" x="487" y="216" width="21.2" height="20.1"/>
        <rect transform="translate(-170 198) rotate(-29)" x="528" y="86.1" width="20.1" height="21.2"/>
        <rect transform="translate(88.9 767) rotate(-88)" x="565" y="266" width="21.2" height="20.1"/>
        <rect transform="translate(-241 262) rotate(-29)" x="615" y="255" width="20.1" height="21.2"/>
        <rect transform="translate(-168 491) rotate(-57)" x="522" y="253" width="21.2" height="20.1"/>
        <rect transform="translate(-184 -91.8) rotate(1.99)" x="474" y="169" width="24.4" height="18"/>
        <rect transform="translate(1157 319) rotate(182)" x="665" y="176" width="24.4" height="18"/>
    </g>
    <g opacity=".5">
        <circle cx="66.7" cy="372" r="66.7" fill="url(#582a1088-938c-4a0f-8b56-a0129ae06be8)"/>
    </g>
    <circle cx="66.8" cy="372" r="65.3" fill="#e6e6e6"/>
    <path transform="translate(-191 -75)" d="m257 512a65 65 0 0 0 35.9-10.7c-2.41-13.2-11.6-13.9-11.6-13.9h-50.5s-8.64 0.71-11.3 12.8a65 65 0 0 0 37.5 11.8z" fill="#ccc"/>
    <circle cx="66.2" cy="371" r="31.5" fill="#ccc"/>
    <path d="m56 397h20.2v16.7a9.54 9.54 0 0 1-9.54 9.54h-1.08a9.54 9.54 0 0 1-9.58-9.54v-16.7z" opacity=".1"/>
    <path d="M56.65,396.06h19a.6.6,0,0,1,.6.6v16.12a9.54,9.54,0,0,1-9.54,9.54H65.58A9.54,9.54,0,0,1,56,412.78V396.66a.6.6,0,0,1,.6-.6Z" fill="#ccc"/>
    <path transform="translate(-191 -75)" d="m247 479a29.1 29.1 0 0 0 20.2 0.06v-2.49h-20.2z" opacity=".1"/>
    <circle cx="66.2" cy="377" r="29" fill="#ccc"/>
    <path transform="translate(-191 -75)" d="m236 426s12.2 24.8 46.6 10.4l-8-12.6-14.2-5.1z" opacity=".1"/>
    <g fill="#ccc">
        <path transform="translate(-191 -75)" d="m236 425s12.2 24.8 46.6 10.4l-8-12.6-14.2-5.1z"/>
        <path transform="translate(-191 -75)" d="m236 423a16.7 16.7 0 0 1 4.15-6.74c5.7-5.63 15-6.82 19.8-13.2a3.75 3.75 0 0 1-1.72 5.29c4.58 0 9.91-0.43 12.5-4.21a8.58 8.58 0 0 1-1.45 9.06c4.07 0.18 8.41 2.94 8.67 7 0.18 2.71-1.52 5.27-3.75 6.82a20.8 20.8 0 0 1-7.56 2.85c-7.71 1.71-35.7 8.85-30.7-6.83z"/>
        <ellipse cx="37.2" cy="377" rx="2.69" ry="5.05"/>
        <ellipse cx="95.2" cy="377" rx="2.69" ry="5.05"/>
    </g>
    <g opacity=".5">
        <circle cx="77.3" cy="366" r="66.7" fill="url(#94cd4822-8206-4eba-9126-3d531279d2b1)"/>
    </g>
    <circle cx="77.4" cy="366" r="65.3" fill="#f5f5f5"/>
    <path transform="translate(-191 -75)" d="m268 506a65 65 0 0 0 35.9-10.7c-2.41-13.2-11.6-13.9-11.6-13.9h-50.5s-8.64 0.71-11.3 12.8a65 65 0 0 0 37.5 11.8z" fill="#ccc"/>
    <circle cx="76.8" cy="364" r="31.5" fill="#ccc"/>
    <path d="m66.6 390h20.2v16.7a9.54 9.54 0 0 1-9.54 9.54h-1.12a9.54 9.54 0 0 1-9.54-9.54v-16.7z" opacity=".1"/>
    <path d="M67.24,389.7h19a.6.6,0,0,1,.6.6v16.12A9.54,9.54,0,0,1,77.3,416H76.17a9.54,9.54,0,0,1-9.54-9.54V390.31A.6.6,0,0,1,67.24,389.7Z" fill="#ccc"/>
    <path transform="translate(-191 -75)" d="m257 473a29.1 29.1 0 0 0 20.2 0.06v-2.48h-20.2z" opacity=".1"/>
    <circle cx="76.8" cy="370" r="29" fill="#ccc"/>
    <path transform="translate(-191 -75)" d="m247 419s12.2 24.8 46.6 10.4l-8-12.6-14.2-5.1z" opacity=".1"/>
    <g fill="#ccc">
        <path transform="translate(-191 -75)" d="m247 419s12.2 24.8 46.6 10.4l-8-12.6-14.2-5.1z"/>
        <path transform="translate(-191 -75)" d="m247 417a16.7 16.7 0 0 1 4.15-6.74c5.7-5.63 15-6.82 19.8-13.2a3.75 3.75 0 0 1-1.72 5.29c4.58 0 9.91-0.43 12.5-4.21a8.58 8.58 0 0 1-1.45 9.06c4.07 0.18 8.41 2.94 8.67 7 0.18 2.71-1.52 5.27-3.75 6.82a20.8 20.8 0 0 1-7.56 2.85c-7.73 1.71-35.7 8.85-30.7-6.83z"/>
        <ellipse cx="47.8" cy="370" rx="2.69" ry="5.05"/>
        <ellipse cx="106" cy="370" rx="2.69" ry="5.05"/>
    </g>
    <path transform="translate(-191 -75)" d="m516 213v3.2l-9-0.8v20l-23.6 34.5-1.45-0.85-3.2 4 30.4 19.2v-7.21l-1.71-1c2.13-7.95 10.8-39.6 15.8-43.8 0 0 9-6.41 13.9-15.2s2.42-39.2-21.2-12z" fill="url(#2edad69d-5f72-4c45-895e-01008dba3de0)"/>
    <path transform="translate(-191 -75)" d="m468 289s-32.6-6.89-50.5-14.2a76.5 76.5 0 0 0-26.3-5.63l-19.6-0.64-9.75-5.85 3-7.87c0.3-0.13 0.6-0.27 0.9-0.44l0.28-1.69a46.4 46.4 0 0 0 4.62-1.4 12.1 12.1 0 0 0 3.86 10.3 11.9 11.9 0 0 0 8.91 3.94 12 12 0 0 0 12-13l-1.4-17.7-0.71 0.37-0.09-1.18-0.26 0.14a46.7 46.7 0 0 0 0.79-52.6l0.76-0.7v-19.4c-0.26-0.25-0.53-0.48-0.8-0.71v-0.09c-16.1-15-38.3-13.8-54.4-10a29.5 29.5 0 0 0-22.5 25.6c-21.4 5.84-14.3 17.1-14.6 21.4-1.66 21.2 5.15 33.6 12.6 40.8a38.7 38.7 0 0 0 10.6 7.74l-4.69 9.37-1.37-0.05-3.75 11.2h-0.18l-46.4 31.5-32.1 35.4a10.4 10.4 0 0 0 8.47 17.3l32.8-2.48s23.2 45.4 16 90.9c-2.42 15.3-1.41 24.6 1 30.3a55.7 55.7 0 0 1-5 17.8c-8.81 18.4-8.81 37.6 2.4 60.1l3.2 116s4 54.5 0 65.7 1.6 64.9 1.6 64.9h-0.78v29.6l60 1.6s14-6.64 16.5-11.7l30.2 9.27s33.2-5.72 13.8-13.6c-14.5-5.9-18.1-14.3-19-18.2l47.4-136s-8.81-116-40.8-156l-3.25-23.6h0.45l6.81-138 0.56 0.08-0.16 0.05c22.6 3.42 40.8 1.61 52.9-0.82a82.4 82.4 0 0 0 15.3-4.29l0.9-0.36h0.11 0.08a46.4 46.4 0 0 0 10.4-5.94l20-30.6-30.4-21zm-126 469 15.2-107v-54.4l27.2 56.9-29.3 123-1.54-0.43-6.76 24.3a15.9 15.9 0 0 1-4.85-6.91z" fill="url(#e8ff2c8b-c79c-4dec-93d5-fd779b0ba085)"/>
    <path transform="translate(-191 -75)" d="m276 306s-45.2 10.6-37.2 75.8c0 0 16.4-5.78 22.1-6.44 5.42-0.63 21.8 1.13 21.8 1.13l7.77-29.4z" fill="#535461"/>
    <path transform="translate(-191 -75)" d="m502 228v19.1l-22.8 33.4 22.8 14.8s10.1-39 15.6-43.6c0 0 8.57-6.12 13.2-14.5s2.34-37.5-20.2-11.5v3.06z" fill="#fda57d"/>
    <path transform="translate(-191 -75)" d="m321 273 9-18a3.34 3.34 0 0 1 2.82-1.84l34.2-1.75a3.34 3.34 0 0 1 3.29 4.54l-8.83 22.8a3.34 3.34 0 0 1-3.41 2.12l-34.4-3.06a3.34 3.34 0 0 1-2.69-4.84z" fill="#fda57d"/>
    <polygon points="133 191 127 208 187 206 164 192" fill="#edeef9"/>
    <polygon points="285 208 288 204 314 219 314 226" fill="#edeef9"/>
    <path transform="translate(-191 -75)" d="m299 452s4.37 17.4-4 35-8.41 35.9 2.29 57.4l3.06 111s3.82 52 0 62.7 1.53 61.9 1.53 61.9h42.8v-34.4l14.5-102v-52l26 54.3-29.8 125 39 16.1 48.9-141s-8.41-111-39-149l-5.71-41.7z" fill="#4d8af0"/>
    <path transform="translate(-191 -75)" d="m301 808v-28.3h43.6s3.06 11.5 22.9 13.8-9.18 16.1-9.18 16.1z" fill="#333"/>
    <path transform="translate(-191 -75)" d="m349 791 7.59-27.3 42 11.7s-0.13 11.9 18.4 19.4-13.2 13-13.2 13z" fill="#333"/>
    <path transform="translate(-191 -75)" d="m399 458-99.6-4a55.7 55.7 0 0 1 0.75 18c4.56 10.7 14.3 7.78 14.3 7.78l87.1-2.68z" opacity=".1"/>
    <path transform="translate(-191 -75)" d="m319 276-44.4 30 8.79 48s22.2 43.4 15.3 86.8 15.3 36.7 15.3 36.7l87.5-2.67 6.5-132s52.8 7.49 76.5-10.8l19.1-29.2-29.1-20-9.94 14.2s-31.1-6.64-48.2-13.5a73.1 73.1 0 0 0-25.1-5.37z" fill="#535461"/>
    <path transform="translate(-191 -75)" d="m320 488s-5.35 26.8 25.2 71.1" opacity=".1"/>
    <path transform="translate(-191 -75)" d="m409 344s36.7-12.2 52.8-12.2 13.4 6.94 13.4 6.94-25.6 11.4-66.1 5.29z" opacity=".1"/>
    <path transform="translate(-191 -75)" d="m367 253-14.6 1.71c-0.46 0.06-0.88 0.64-1.13 1.54 3.21 5.79 7.23 9.25 11.6 9.25a9 9 0 0 0 4.43-1.23l1.12-6.76c0.37-2.23-0.37-4.64-1.41-4.51z" opacity=".1"/>
    <circle cx="167" cy="145" r="44.6" fill="#fda57d"/>
    <path transform="translate(-191 -75)" d="m395 176v18.6l-2.25 2.06a7.71 7.71 0 0 0 2.25 12.8s-3.72 29.7-8.36 40.9l7.9-4.18 1.34 16.9a11.5 11.5 0 0 1-11.5 12.4 11.5 11.5 0 0 1-10.2-16.8c1.89-3.68 5.24-7.55 6.88-13 6-20-6-16.3-8.83-12.5s0.46 13.5 0.46 13.5 8.83 16.3-37.6 12.5c0 0-30.7-6.5-27.4-47.8 0.33-4.14-6.5-14.9 13.9-20.4a28.1 28.1 0 0 1 21.5-24.4c15.3-3.59 36.5-4.74 51.9 9.6z" opacity=".1"/>
    <path transform="translate(-191 -75)" d="m394 175v18.6l-2.27 2.06a7.71 7.71 0 0 0 2.25 12.8s-3.72 29.7-8.36 40.9l7.9-4.18 1.34 16.9a11.5 11.5 0 0 1-11.5 12.4 11.5 11.5 0 0 1-10.2-16.8c1.89-3.68 5.24-7.55 6.88-13 6-20-6-16.3-8.83-12.5s0.46 13.5 0.46 13.5 8.83 16.3-37.6 12.5c0 0-30.7-6.5-27.4-47.8 0.33-4.14-6.5-14.9 13.9-20.4a28.1 28.1 0 0 1 21.5-24.4c15.3-3.6 36.5-4.75 51.9 9.6z" fill="#72351c"/>
</svg>
